:SAMPLES-PER-SECOND 30
:FRAME-RANGE 1-3549
:FULLY-SPECIFIED
:DEGREES
1331
root  53.6996 38.6769 9.63587 -178.331 32.0194 178.533
RightUpLeg  -28.8183 4.62193 -8.89898
RightLeg  48.1929 -5.35037 -6.69824
RightFoot  -5.474 -0.320415 5.51989
RightToes  1.218e-010 1.26228e-014 -6.01869e-014
Spine  3.42581 0.333309 -0.709546
Spine1  7.58102 0.561679 -1.68414
HEad  -7.52522 38.3429 -14.2023
LeftShoulder1  2.0929 -4.80094 -19.5896
LeftArm  28.0314 -3.01189 -56.1973
LeftForeArm  18.2691 -20.3933 -5.47003
LeftHand  -0.107133 4.13916 8.54844
RightShoulder  1.48691 1.5184 24.7045
RightArm  -30.4383 -1.12513 45.7256
RightForeArm  60.8553 -5.18315 0.803412
RightHand  0.083212 -6.0662 -16.803
LeftUpLeg  -10.7021 -1.7787 -9.78086
LeftLeg  22.5083 6.09925 3.24552
LeftFoot  -14.102 0.236601 6.29109
LeftToes  -1.43952e-010 7.51141e-011 -1.22592e-011
1332
root  54.5271 38.7371 8.52391 -177.71 30.8065 179.268
RightUpLeg  -28.8127 5.87439 -9.77256
RightLeg  35.4688 -6.94553 -5.53275
RightFoot  -5.1231 -0.413737 6.96505
RightToes  1.218e-010 1.26228e-014 -6.01869e-014
Spine  2.18434 -0.0541277 0.115341
Spine1  7.98844 0.313814 -1.5509
HEad  -8.72819 38.1444 -14.7289
LeftShoulder1  2.03191 -4.70158 -19.1142
LeftArm  28.5156 -4.62575 -56.6337
LeftForeArm  17.5282 -23.2082 -4.14837
LeftHand  -0.102856 4.24276 8.87176
RightShoulder  1.39303 1.16336 25.0547
RightArm  -31.466 -4.4859 44.2495
RightForeArm  59.6467 -5.14975 0.368145
RightHand  0.071097 -5.99532 -16.492
LeftUpLeg  -8.06689 -1.71765 -8.93322
LeftLeg  21.5473 5.02398 2.78931
LeftFoot  -15.6929 0.333478 6.28593
LeftToes  -1.43952e-010 7.51141e-011 -1.22592e-011
1333
root  55.3638 38.7142 7.39906 -176.905 29.7333 179.478
RightUpLeg  -28.4556 6.95311 -11.1988
RightLeg  21.6872 -7.28948 -3.38748
RightFoot  -5.13177 -0.464621 7.90787
RightToes  1.218e-010 1.26228e-014 -6.01869e-014
Spine  0.571287 -0.453433 0.403077
Spine1  8.27404 -0.0249767 -1.25352
HEad  -9.50762 38.3322 -15.1975
LeftShoulder1  1.97605 -4.56133 -18.836
LeftArm  26.1531 -5.83474 -56.4454
LeftForeArm  19.162 -25.1708 -4.37743
LeftHand  -0.104232 4.23242 8.9407
RightShoulder  1.32363 0.864326 25.6399
RightArm  -32.4411 -7.00469 42.6669
RightForeArm  59.3198 -5.0682 -0.172176
RightHand  0.0853777 -6.11015 -16.2475
LeftUpLeg  -5.94357 -2.02549 -8.50226
LeftLeg  20.6703 4.29742 2.5209
LeftFoot  -17.3331 0.412558 5.88566
LeftToes  -1.43952e-010 7.51141e-011 -1.22592e-011
1334
root  56.248 38.582 6.22146 -176.426 28.8272 179.196
RightUpLeg  -27.655 3.95296 -10.6444
RightLeg  9.49855 -1.70041 -1.91399
RightFoot  -6.09359 -0.44784 8.84833
RightToes  1.218e-010 1.26228e-014 -6.01869e-014
Spine  -1.10965 -0.837073 0.200781
Spine1  8.5133 -0.392917 -0.994561
HEad  -9.40451 38.8046 -15.2079
LeftShoulder1  1.89155 -4.28455 -18.6222
LeftArm  24.8196 -6.66996 -56.2407
LeftForeArm  19.867 -26.0627 -4.53383
LeftHand  -0.107808 4.16095 8.77304
RightShoulder  1.26992 0.650132 26.0064
RightArm  -32.9204 -8.95733 41.2739
RightForeArm  59.2879 -5.01189 -0.506555
RightHand  0.119972 -6.36825 -16.1425
LeftUpLeg  -3.75518 -2.21629 -8.46035
LeftLeg  20.0562 3.67545 2.33018
LeftFoot  -19.1598 0.493115 5.52558
LeftToes  -1.43952e-010 7.51141e-011 -1.22592e-011
